<svg xmlns="http://www.w3.org/2000/svg" viewBox="0 0 1200 675">
<defs>
<linearGradient id="bg" x1="0" y1="0" x2="1" y2="1"><stop offset="0" stop-color="#140a05"/><stop offset="0.5" stop-color="#281410"/><stop offset="1" stop-color="#1a0a05"/></linearGradient>
<radialGradient id="r1" cx="72%" cy="35%" r="55%"><stop offset="0" stop-color="#f59e0b" stop-opacity="0.30"/><stop offset="1" stop-color="#f59e0b" stop-opacity="0"/></radialGradient>
<linearGradient id="gold" x1="0" y1="0" x2="1" y2="0"><stop offset="0" stop-color="#fcd34d"/><stop offset="1" stop-color="#d97706"/></linearGradient>
</defs>
<rect width="1200" height="675" fill="url(#bg)"/>
<rect width="1200" height="675" fill="url(#r1)"/>
<!-- Chart area bg -->
<g opacity="0.08" stroke="#fcd34d" stroke-width="0.7"><path d="M780 180H1140M780 240H1140M780 300H1140M780 360H1140M780 420H1140M780 480H1140"/><path d="M780 180V480M840 180V480M900 180V480M960 180V480M1020 180V480M1080 180V480M1140 180V480"/></g>
<!-- PDB bar chart - rising -->
<g><rect x="790" y="400" width="40" height="80" fill="#16a34a" opacity="0.7"/><rect x="850" y="370" width="40" height="110" fill="#16a34a" opacity="0.75"/><rect x="910" y="345" width="40" height="135" fill="#16a34a" opacity="0.8"/><rect x="970" y="315" width="40" height="165" fill="#16a34a" opacity="0.85"/><rect x="1030" y="285" width="40" height="195" fill="#16a34a" opacity="0.9"/><rect x="1090" y="245" width="40" height="235" fill="#16a34a" opacity="0.95"/></g>
<!-- Rupiah line descending overlay -->
<path d="M810 230L870 245L930 255L990 275L1050 300L1110 335" stroke="#ef4444" stroke-width="3" fill="none" opacity="0.9"/>
<circle cx="810" cy="230" r="4" fill="#ef4444"/><circle cx="870" cy="245" r="4" fill="#ef4444"/><circle cx="930" cy="255" r="4" fill="#ef4444"/><circle cx="990" cy="275" r="4" fill="#ef4444"/><circle cx="1050" cy="300" r="4" fill="#ef4444"/><circle cx="1110" cy="335" r="5" fill="#ef4444"/>
<text x="790" y="515" fill="#16a34a" font-family="Inter,Arial" font-size="11" font-weight="700">PDB QoQ ↗</text>
<text x="1045" y="220" fill="#ef4444" font-family="Inter,Arial" font-size="11" font-weight="700">Rupiah ↘</text>
<!-- Tag -->
<text x="80" y="155" fill="#fcd34d" font-family="Inter,Arial,sans-serif" font-size="13" font-weight="800" letter-spacing="4">AVENIR RESEARCH · MACRO · FX STRATEGY</text>
<text x="80" y="245" fill="#ffffff" font-family="Georgia,serif" font-size="62" font-weight="700" letter-spacing="-1.5">Paradoks PDB</text>
<text x="80" y="315" fill="#ffffff" font-family="Georgia,serif" font-size="62" font-weight="700" letter-spacing="-1.5">5,61%:</text>
<text x="80" y="390" fill="url(#gold)" font-family="Georgia,serif" font-size="36" font-style="italic" font-weight="600">Kualitas Pertumbuhan,</text>
<text x="80" y="435" fill="url(#gold)" font-family="Georgia,serif" font-size="36" font-style="italic" font-weight="600">DSR/Revenue, Risiko Fiskal</text>
<text x="80" y="480" fill="#bbaaaa" font-family="Inter,Arial,sans-serif" font-size="18">Q1-2026 Tertinggi Sejak Q3-2022 · Rp17.668/USD · Mei 2026</text>
<rect x="80" y="520" width="155" height="36" rx="18" fill="rgba(22,163,74,0.18)" stroke="#16a34a" stroke-width="1.5"/><text x="157" y="544" text-anchor="middle" fill="#86efac" font-family="Inter,Arial,sans-serif" font-size="12" font-weight="800">PDB Q1 5,61%</text>
<rect x="250" y="520" width="155" height="36" rx="18" fill="rgba(239,68,68,0.18)" stroke="#ef4444" stroke-width="1.5"/><text x="327" y="544" text-anchor="middle" fill="#fca5a5" font-family="Inter,Arial,sans-serif" font-size="12" font-weight="800">IDR 17.668/USD</text>
<rect x="420" y="520" width="155" height="36" rx="18" fill="rgba(252,211,77,0.15)" stroke="#fcd34d" stroke-width="1.5"/><text x="497" y="544" text-anchor="middle" fill="#fcd34d" font-family="Inter,Arial,sans-serif" font-size="12" font-weight="800">BELANJA +21,8%</text>
</svg>