<svg xmlns="http://www.w3.org/2000/svg" viewBox="0 0 1200 675" preserveAspectRatio="xMidYMid slice"><defs><linearGradient id="bg" x1="0" y1="0" x2="1" y2="1"><stop offset="0" stop-color="#140a05"/><stop offset="0.5" stop-color="#281410"/><stop offset="1" stop-color="#1a0a05"/></linearGradient><radialGradient id="g1" cx="72%" cy="35%" r="55%"><stop offset="0" stop-color="#f59e0b" stop-opacity="0.30"/><stop offset="1" stop-color="#f59e0b" stop-opacity="0"/></radialGradient><linearGradient id="gold" x1="0" y1="0" x2="1" y2="0"><stop offset="0" stop-color="#fcd34d"/><stop offset="1" stop-color="#d97706"/></linearGradient></defs><rect width="1200" height="675" fill="url(#bg)"/><rect width="1200" height="675" fill="url(#g1)"/><g opacity="0.45"><path d="M780 300L830 290L860 310L900 305L940 330L970 325L1010 355L1050 345L1080 380L1110 395L1140 420" stroke="#f87171" stroke-width="3" fill="none"/></g><text x="1050" y="220" fill="#fcd34d" font-family="Georgia,serif" font-size="160" font-weight="700" opacity="0.10">Rp</text><text x="80" y="155" fill="#fcd34d" font-family="Inter,Arial,sans-serif" font-size="13" font-weight="800" letter-spacing="4">AVENIR RESEARCH · MACRO · FX STRATEGY</text><text x="80" y="245" fill="#ffffff" font-family="Georgia,serif" font-size="62" font-weight="700" letter-spacing="-1.5">Pelemahan Rupiah</text><text x="80" y="315" fill="#ffffff" font-family="Georgia,serif" font-size="62" font-weight="700" letter-spacing="-1.5">2026:</text><text x="80" y="390" fill="url(#gold)" font-family="Georgia,serif" font-size="42" font-style="italic" font-weight="600">Oil Shock, Dollar Premium,</text><text x="80" y="440" fill="url(#gold)" font-family="Georgia,serif" font-size="42" font-style="italic" font-weight="600">dan Diskon Kredibilitas</text><text x="80" y="490" fill="#bbaaaa" font-family="Inter,Arial,sans-serif" font-size="18">Rp17.512/USD · Cadev $146,2B · Fitch Outlook Negatif</text><rect x="80" y="530" width="170" height="36" rx="18" fill="rgba(239,68,68,0.18)" stroke="#ef4444" stroke-width="1.5"/><text x="165" y="554" text-anchor="middle" fill="#fca5a5" font-family="Inter,Arial,sans-serif" font-size="12" font-weight="800">USD/IDR 17.512</text><rect x="265" y="530" width="170" height="36" rx="18" fill="rgba(252,211,77,0.15)" stroke="#fcd34d" stroke-width="1.5"/><text x="350" y="554" text-anchor="middle" fill="#fcd34d" font-family="Inter,Arial,sans-serif" font-size="12" font-weight="800">CADEV $146,2B</text><rect x="450" y="530" width="170" height="36" rx="18" fill="rgba(220,38,38,0.18)" stroke="#dc2626" stroke-width="1.5"/><text x="535" y="554" text-anchor="middle" fill="#fca5a5" font-family="Inter,Arial,sans-serif" font-size="12" font-weight="800">FITCH OUTLOOK NEG</text></svg>